<svg xmlns="http://www.w3.org/2000/svg" viewBox="0 0 128 128">
  <!-- Magnet Left Side -->
  <path d="M55,30 C30,30 18,48 18,70 C18,92 34,108 56,108 C68,108 78,100 82,90 C84,86 81,82 77,82 C72,82 68,88 56,88 C44,88 32,78 32,68 C32,58 42,46 56,46 C60,46 64,48 66,51 L74,43 C69,35 63,30 55,30 Z" fill="#0b172a" />
  <!-- Magnet Tip M Box -->
  <rect x="50" y="14" width="20" height="20" rx="4" fill="#0b172a" transform="rotate(20 60 24)" />
  <text x="60" y="29" font-family="monospace" font-weight="900" font-size="14" fill="#ffffff" text-anchor="middle" transform="rotate(20 60 24)">M</text>
  
  <!-- Red Network Right Side -->
  <circle cx="85" cy="74" r="7" fill="#ff0017" />
  <!-- Orbiting network nodes and connections -->
  <path d="M85,74 L102,52 L112,68 L100,90 Z" stroke="#ff0017" stroke-width="2" fill="none" />
  <path d="M102,52 L82,45 L68,58 L85,74" stroke="#ff0017" stroke-width="2" fill="none" />
  <path d="M68,58 L100,90" stroke="#ff0017" stroke-width="1.5" stroke-dasharray="2,2" fill="none" />
  
  <circle cx="102" cy="52" r="5.5" fill="#ff0017" />
  <circle cx="112" cy="68" r="5.5" fill="#ff0017" />
  <circle cx="100" cy="90" r="5.5" fill="#ff0017" />
  <circle cx="82" cy="45" r="5.5" fill="#ff0017" />
  <circle cx="68" cy="58" r="5.5" fill="#ff0017" />

  <!-- Tip N Box -->
  <rect x="91" y="98" width="18" height="18" rx="4" fill="#ff0017" transform="rotate(-30 100 107)" />
  <text x="100" y="111" font-family="monospace" font-weight="900" font-size="13" fill="#ffffff" text-anchor="middle" transform="rotate(-30 100 107)">N</text>
</svg>
